<?xml version="1.0" encoding="UTF-8"?>
<svg xmlns="http://www.w3.org/2000/svg" version="1.1" viewBox="0 0 1000 1000">
  <defs>
    <style>
      .cls-1 {
        fill: #4f42b9;
      }

      .cls-2 {
        fill: #fefefe;
      }
    </style>
  </defs>
  <!-- Generator: Adobe Illustrator 28.7.1, SVG Export Plug-In . SVG Version: 1.2.0 Build 142)  -->
  <g>
    <g id="Camada_1">
      <g>
        <path class="cls-2" d="M499.967,999.442c-164.354,0-328.708-.034-493.062.147-5.522.006-6.901-.865-6.898-6.72C.194,664.136.199,335.404-.014,6.671-.018.314,1.733-.401,7.37-.399c328.431.146,656.862.148,985.293-.013,5.782-.003,7.327.918,7.323,7.132-.2,328.455-.201,656.91-.002,985.366.004,6.528-1.79,7.504-7.787,7.498-164.077-.178-328.154-.143-492.23-.143Z"/>
        <path class="cls-1" d="M465.654,783.441c0,37.42-.051,74.841.031,112.261.025,11.327-4.277,20.299-14.81,24.718-11.5,4.825-22.919,3.636-32.725-4.681-5.855-4.966-7.568-11.75-7.548-19.413.148-55.714.08-111.429.08-167.144,0-26.334-17.281-39.53-43.211-32.998-14.818,3.733-21.743,12.631-21.748,27.974-.007,20.788.006,41.577-.011,62.365-.002,2.491.023,4.999-.234,7.472-2.473,23.778-24.876,34.127-44.971,20.752-5.584-3.717-9.194-8.845-9.579-15.724-1.767-31.572-2.551-63.16.634-94.678,1.259-12.464,8.176-22.29,17.416-30.281,8.163-7.06,16.741-13.657,25.326-20.21,14.54-11.099,23.812-25.139,26.091-43.633.692-5.618-.371-8.903-5.582-12.138-72.7-45.137-117.061-109.857-132.823-194.01-21.744-116.091,38.855-240.198,144.324-295.848,164.996-87.06,363.473,2.105,407.983,183.284,28.797,117.221-22.475,240.442-127.427,305.455-5.619,3.481-7.327,7.319-7.138,13.331.549,17.484,7.097,32.202,19.493,44.473,9.685,9.587,20.636,17.65,31.293,26.039,12.954,10.197,19.318,22.923,18.339,39.615-.648,11.049-.06,22.168-.168,33.255-.026,2.727-.164,5.596-1.011,8.148-4.115,12.41-18.764,18.876-35.477,15.889-14.845-2.653-21.695-10.368-21.725-24.528-.023-11.087-.234-22.181.073-33.26.217-7.826-3.172-13.483-9.581-17.158-12.458-7.144-25.763-8.262-39.206-3.347-9.017,3.297-13.023,10.191-12.977,20.04.198,42.963.094,85.928.08,128.892-.004,13.047-4.183,20.371-13.689,24.16-11.649,4.643-28.941,1.965-36.021-5.585-4.496-4.794-5.297-10.629-5.286-16.94.091-57.101.053-114.201.053-171.302,0-26.628-16.28-39.799-42.685-34.535-17.315,3.452-25.581,13.526-25.582,31.187-.001,36.034,0,72.069,0,108.103Z"/>
        <path class="cls-2" d="M500.254,557.355c-108.992.744-199.577-88.694-200.363-197.827-.797-110.643,87.735-201.165,197.704-202.15,111.165-.996,201.977,87.603,202.77,197.828.805,111.777-87.898,201.383-200.111,202.149Z"/>
      </g>
    </g>
  </g>
</svg>